<?xml version="1.0" encoding="utf-8"?>
<!-- Generator: Adobe Illustrator 18.1.1, SVG Export Plug-In . SVG Version: 6.00 Build 0)  -->
<svg version="1.1" id="Layer_1" xmlns="http://www.w3.org/2000/svg" xmlns:xlink="http://www.w3.org/1999/xlink" x="0px" y="0px"
	 viewBox="0 0 1900 1200" enable-background="new 0 0 1900 1200" xml:space="preserve">
<g>
	<defs>
		<rect id="SVGID_1_" width="1900" height="1200"/>
	</defs>
	<clipPath id="SVGID_2_">
		<use xlink:href="#SVGID_1_"  overflow="visible"/>
	</clipPath>
	<g clip-path="url(#SVGID_2_)">
		<g>
			<rect fill="#BDAAA4" width="1900" height="1200"/>
		</g>
		<g>
			<rect fill="none" stroke="#000000" stroke-miterlimit="10" width="1900" height="1200"/>
		</g>
	</g>
	<g clip-path="url(#SVGID_2_)">
		<g>
			<path fill="#8D6E63" d="M360.6707,433.4666c-3.67-11.46-9.44-21.51-16.58-28.15c-8.86-8.22-19.8-8.52-28.6-16.61
				c-7.01-6.44-10.03-19.32-9.15-31.41c0.99-13.63,6.53-22.07,14.53-27.15c7.93-5.03,16.75-8.42,22.43-19.02
				c6.57-12.23,6.13-29.24,2-43.04c-6.72-22.5-22.89-34.51-38.58-34.3c-16.71,0.23-30.54,13.55-37.97,36.2599
				c-5.61,17.14-10.75,54.93-27.84,50.49c-8.86-2.3-16.17-14.09-23.2-21.79c-7.36-8.08-15.43-13.81-24.67-13.54
				c-15.85,0.45-29.46,16.27-33.93,38.39c-2.54-0.06-5.1,0.12-7.64,0.59c-20.37,3.75-37.42,22.78-53.39,41.06
				c-1.72,2-2.92,5.06-2.2401,8.48c5.75,29.1,24.67,44.79,43.04,50.52c12.06,3.77,24.42,4.43,36.49,8.01
				c10.17,3.01,21.58,8.23,27.51,22.43c4.72,11.31,1.28,23.37-6.5,28.14c-7.86,4.82-16.95,4.16-25.22,3.23
				c-18.09-2.02-38.4-1.42-54.23,13.97c-17.49,17.03-22.6,47.53-19.02,77.43c1.98,16.52,6.17,32.31,10.79,47.45
				c3.88,12.73,7.94,28.12,16.24,35.59c8.92,8.0099,20.57,4.0699,30.19,1.79c9.4-2.23,18.71-5.45,27.7-10.19
				c17.61-9.28,34.24-24.53,44.78-48.59c4.93-11.24,7.85-24.0699,11.61-36.24c3.62-11.79,8.31-24.77,17.2401-28.05
				c11.07-4.07,22.63,7.03,33.11,10.92c9.25,3.45,18.85,3.69,28.22,1.26c17.45-4.53,34.53-20.35,42.86-44.8
				C368.3407,483.9966,367.9707,456.1666,360.6707,433.4666z"/>
		</g>
		<g>
			<path fill="none" stroke="#000000" stroke-width="0.5" stroke-linecap="round" stroke-linejoin="round" d="M360.6707,433.4666
				c-3.67-11.46-9.44-21.51-16.58-28.15c-8.86-8.22-19.8-8.52-28.6-16.61c-7.01-6.44-10.03-19.32-9.15-31.41
				c0.99-13.63,6.53-22.07,14.53-27.15c7.93-5.03,16.75-8.42,22.43-19.02c6.57-12.23,6.13-29.24,2-43.04
				c-6.72-22.5-22.89-34.51-38.58-34.3c-16.71,0.23-30.54,13.55-37.97,36.2599c-5.61,17.14-10.75,54.93-27.84,50.49
				c-8.86-2.3-16.17-14.09-23.2-21.79c-7.36-8.08-15.43-13.81-24.67-13.54c-15.85,0.45-29.46,16.27-33.93,38.39
				c-2.54-0.06-5.1,0.12-7.64,0.59c-20.37,3.75-37.42,22.78-53.39,41.06c-1.72,2-2.92,5.06-2.2401,8.48
				c5.75,29.1,24.67,44.79,43.04,50.52c12.06,3.77,24.42,4.43,36.49,8.01c10.17,3.01,21.58,8.23,27.51,22.43
				c4.72,11.31,1.28,23.37-6.5,28.14c-7.86,4.82-16.95,4.16-25.22,3.23c-18.09-2.02-38.4-1.42-54.23,13.97
				c-17.49,17.03-22.6,47.53-19.02,77.43c1.98,16.52,6.17,32.31,10.79,47.45c3.88,12.73,7.94,28.12,16.24,35.59
				c8.92,8.0099,20.57,4.0699,30.19,1.79c9.4-2.23,18.71-5.45,27.7-10.19c17.61-9.28,34.24-24.53,44.78-48.59
				c4.93-11.24,7.85-24.0699,11.61-36.24c3.62-11.79,8.31-24.77,17.2401-28.05c11.07-4.07,22.63,7.03,33.11,10.92
				c9.25,3.45,18.85,3.69,28.22,1.26c17.45-4.53,34.53-20.35,42.86-44.8C368.3407,483.9966,367.9707,456.1666,360.6707,433.4666z"/>
		</g>
	</g>
	<g clip-path="url(#SVGID_2_)">
		<g>
			<path fill="#8D6E63" d="M1396.2441,212.0071c-8.97-9.27-19.73-16.78-31.9399-21.09c-14.25-5.03-29.7001-5.31-44.64-5.37
				c-32.33-0.15-64.66-0.2-96.99-0.3c-13.73-0.04-29.1801,1.33-42.03-4.49c-10.5699-4.79-16.64-14.4299-18.98-25.51
				c-5.4501-25.76,7.25-50.26,12.88-74.74c3.1699-13.75,4.5599-28.51-0.12-42.1c-3.99-11.6-11.79-21.1801-21.5601-28.4601
				c-22.4199-16.7-51.7999-18.2699-78.74-17.8999c-24.53,0.34-51.84,3.8-69.8199,22.3c-19.27,19.8199-21.69,49.2799-20.1201,75.45
				c0.64,10.71,1.75,21.3899,2.3,32.09c-4.41-1.63-9.37-1.9501-14.14-1.0299c-11.02,2.1299-18.69,11.1699-21.18,21.8298
				c-5.86,25.0801,11.4,48.9801,29.45,64.3401c9.9,8.43,20.89,15.1,31.58,22.42c5.4,3.69,10.58,8.13,12.55,14.6
				c2.14,7.09,0.15,14.91-2.72,21.5c-5.3,12.18-14.78,21.99-20.3,34.08c-6.3,13.79-5.24,27.85-1.15,42.14
				c3.5,12.26,8.24,25.58,20.23,31.94c11.0099,5.84,23.95,4.79,35.8199,2.81c25.63-4.29,52.15-10.57,70.3201-30.48
				c14.6799-16.08,23.2999-36.72,38.24-52.54c8.24-8.73,18.39-14.97,30.4099-16.79c14.1801-2.15,29.0601,1.39,41.9501,7.28
				c26.84,12.27,48.28,33.62,74.89,46.4c23.89,11.48,51.5499,16.93,76.85,6.63c22.72-9.25,38.27-29.38,38.55-54.34
				C1428.1241,256.4971,1414.0842,230.4371,1396.2441,212.0071z"/>
		</g>
		<g>
			<path fill="none" stroke="#000000" stroke-width="0.5" stroke-linecap="round" stroke-linejoin="round" d="M1396.2441,212.0071
				c-8.97-9.27-19.73-16.78-31.9399-21.09c-14.25-5.03-29.7001-5.31-44.64-5.37c-32.33-0.15-64.66-0.2-96.99-0.3
				c-13.73-0.04-29.1801,1.33-42.03-4.49c-10.5699-4.79-16.64-14.4299-18.98-25.51c-5.4501-25.76,7.25-50.26,12.88-74.74
				c3.1699-13.75,4.5599-28.51-0.12-42.1c-3.99-11.6-11.79-21.1801-21.5601-28.4601c-22.4199-16.7-51.7999-18.2699-78.74-17.8999
				c-24.53,0.34-51.84,3.8-69.8199,22.3c-19.27,19.8199-21.69,49.2799-20.1201,75.45c0.64,10.71,1.75,21.3899,2.3,32.09
				c-4.41-1.63-9.37-1.9501-14.14-1.0299c-11.02,2.1299-18.69,11.1699-21.18,21.8298c-5.86,25.0801,11.4,48.9801,29.45,64.3401
				c9.9,8.43,20.89,15.1,31.58,22.42c5.4,3.69,10.58,8.13,12.55,14.6c2.14,7.09,0.15,14.91-2.72,21.5
				c-5.3,12.18-14.78,21.99-20.3,34.08c-6.3,13.79-5.24,27.85-1.15,42.14c3.5,12.26,8.24,25.58,20.23,31.94
				c11.0099,5.84,23.95,4.79,35.8199,2.81c25.63-4.29,52.15-10.57,70.3201-30.48c14.6799-16.08,23.2999-36.72,38.24-52.54
				c8.24-8.73,18.39-14.97,30.4099-16.79c14.1801-2.15,29.0601,1.39,41.9501,7.28c26.84,12.27,48.28,33.62,74.89,46.4
				c23.89,11.48,51.5499,16.93,76.85,6.63c22.72-9.25,38.27-29.38,38.55-54.34
				C1428.1241,256.4971,1414.0842,230.4371,1396.2441,212.0071z"/>
		</g>
	</g>
	<g clip-path="url(#SVGID_2_)">
		<g>
			<path fill="#8D6E63" d="M1904.1001,934.8376c-0.98-11.87-1.96-23.74-2.9399-35.6c-2.02-24.39-4.04-48.79-6.0601-73.18
				c-1.6699-20.1-3.1499-40.32-7.36-60.09c-4.01-18.83-10.7999-37.4-22.48-52.88c-5.89-7.8-12.91-14.93-21.52-19.71
				c-9.27-5.14-19.76-6.85-30.26-6.83c-22.5,0.04-45.62,4.17-67.61,8.63c-11.5499,2.35-23.01,5.12-34.36,8.3
				c-8.45,2.36-17.37,4.79-24.72,9.77c-7.0601,4.79-12.1901,11.71-12.99,20.38c-0.84,9.08,3.4299,17.73,9.09,24.55
				c12.48,15.05,33.99,18.93,45.39,35.09c10.5,14.89,11.53,34.22,10.9301,51.82c-0.66,19.37-0.91,42.12-11.2301,59.15
				c-17.8199,29.4-62.61,34.61-92.7799,24.92c-34.5801-11.09-29.42-55.55-43.9-82.18c-18-33.11-58.9-33.46-91.73-29.61
				c-37.8401,4.45-79.5601,10.63-106.9501,39.86c-21.72,23.19-32.3199,56.52-28.88,88.03c1.7101,15.64,6.66,30.71,15.1901,43.98
				c2.0499,3.2,5.9199,2.75,8.01,0.72c2.01,8.95,0.2799,18.25-8.5901,23.02c-8.2799,4.44-18.37,4.19-26.9399,8.1
				c-7.9401,3.6301-14.45,9.6801-19.4301,16.78c-11.8099,16.79-12.6599,38.1101-8.96,57.66c3.47,18.3201,9.7,41.1,31.12,44.3301
				c9.6901,1.46,20,0.09,29.59-1.55c10.3101-1.76,20.42-4.67,30.1001-8.64c19.3999-7.96,35.6899-19.89,50.9399-34.11
				c15.35-14.3101,30.78-30,51.8-35.3101c9.22-2.3199,19.71-2.5099,28.39,1.88c7.1,3.5901,15.0399,12.37,11.58,20.92
				c-2.99,7.41-12.4401,9.65-19.29,11.8101c-7.98,2.5199-15.48,5.33-22.03,10.72c-13.7999,11.36-20.58,30-16.8999,47.52
				c3.7899,18.0499,17.85,32.96,34.4399,40.25c18.4,8.08,39.2001,8.1499,58.55,3.73c35.6599-8.15,65.2-32.3201,88.35-59.7101
				c12.21-14.4399,23.05-29.99,33-46.0599c5.0599-8.1801,9.66-17.21,17.1-23.54c8.35-7.1,19.62-8.98,30.1-10.6899
				c21.8101-3.55,43.24-8.4301,64.1901-15.54c19.2-6.51,39.6899-13.88,56.34-25.73c16.16-11.51,25.05-27.19,25.71-47.15
				C1906.4701,957.3776,1905.0302,946.0476,1904.1001,934.8376z"/>
		</g>
		<g>
			<path fill="none" stroke="#000000" stroke-width="0.5" stroke-linecap="round" stroke-linejoin="round" d="M1904.1001,934.8376
				c-0.98-11.87-1.96-23.74-2.9399-35.6c-2.02-24.39-4.04-48.79-6.0601-73.18c-1.6699-20.1-3.1499-40.32-7.36-60.09
				c-4.01-18.83-10.7999-37.4-22.48-52.88c-5.89-7.8-12.91-14.93-21.52-19.71c-9.27-5.14-19.76-6.85-30.26-6.83
				c-22.5,0.04-45.62,4.17-67.61,8.63c-11.5499,2.35-23.01,5.12-34.36,8.3c-8.45,2.36-17.37,4.79-24.72,9.77
				c-7.0601,4.79-12.1901,11.71-12.99,20.38c-0.84,9.08,3.4299,17.73,9.09,24.55c12.48,15.05,33.99,18.93,45.39,35.09
				c10.5,14.89,11.53,34.22,10.9301,51.82c-0.66,19.37-0.91,42.12-11.2301,59.15c-17.8199,29.4-62.61,34.61-92.7799,24.92
				c-34.5801-11.09-29.42-55.55-43.9-82.18c-18-33.11-58.9-33.46-91.73-29.61c-37.8401,4.45-79.5601,10.63-106.9501,39.86
				c-21.72,23.19-32.3199,56.52-28.88,88.03c1.7101,15.64,6.66,30.71,15.1901,43.98c2.0499,3.2,5.9199,2.75,8.01,0.72
				c2.01,8.95,0.2799,18.25-8.5901,23.02c-8.2799,4.44-18.37,4.19-26.9399,8.1c-7.9401,3.6301-14.45,9.6801-19.4301,16.78
				c-11.8099,16.79-12.6599,38.1101-8.96,57.66c3.47,18.3201,9.7,41.1,31.12,44.3301c9.6901,1.46,20,0.09,29.59-1.55
				c10.3101-1.76,20.42-4.67,30.1001-8.64c19.3999-7.96,35.6899-19.89,50.9399-34.11c15.35-14.3101,30.78-30,51.8-35.3101
				c9.22-2.3199,19.71-2.5099,28.39,1.88c7.1,3.5901,15.0399,12.37,11.58,20.92c-2.99,7.41-12.4401,9.65-19.29,11.8101
				c-7.98,2.5199-15.48,5.33-22.03,10.72c-13.7999,11.36-20.58,30-16.8999,47.52c3.7899,18.0499,17.85,32.96,34.4399,40.25
				c18.4,8.08,39.2001,8.1499,58.55,3.73c35.6599-8.15,65.2-32.3201,88.35-59.7101c12.21-14.4399,23.05-29.99,33-46.0599
				c5.0599-8.1801,9.66-17.21,17.1-23.54c8.35-7.1,19.62-8.98,30.1-10.6899c21.8101-3.55,43.24-8.4301,64.1901-15.54
				c19.2-6.51,39.6899-13.88,56.34-25.73c16.16-11.51,25.05-27.19,25.71-47.15
				C1906.4701,957.3776,1905.0302,946.0476,1904.1001,934.8376z"/>
		</g>
	</g>
	<g clip-path="url(#SVGID_2_)">
		<g>
			<path fill="#8D6E63" d="M961.9462,963.4912c-2.46-10.36-7.75-23.64-19.54-25.6801c-6.22-1.08-12.73,0.67-18.75,2.13
				c-7.63,1.85-15.13,4.2-22.73,6.16c-12.38,3.19-25.18,5.42-37.71,1.82c-9.88-2.83-19.68-9.22-22.54-19.63
				c-1.92-6.97-0.6-14.3,0.77-21.23c1.42-7.1299,2.8-14.23,3.49-21.48c2.42-25.57-2.16-51.59-12.45-75.07
				c-10-22.82-26.4-45.81-48.8-57.78c-24.77-13.23-53.73-9.59-79.81-2.67c-11.2,2.97-25.17,5.69-31.94,16.15
				c-3.44,5.3-4.4,11.61-5.08,17.76c-0.86,7.72-1.36,15.5-1.74,23.25c-0.55,10.98-0.68,21.96-0.44,32.94
				c-1.25,1.1-2.02,2.77-1.63,4.83c1.44,7.54,3.66,23.3-5.92,26.69c-5.59,1.98-12.58-1.08-18.26-1.73
				c-6.05-0.69-12.15-0.45-18.13,0.67c-22.42,4.18-37.21,24.02-31.19,46.67c6.43,24.17,28.03,37.65,50.45,44.8
				c13.07,4.17,26.58,6.83,39.52,11.4c11.8,4.16,24.35,10.55,30.7401,21.86c5.15,9.11,5.08,22.96-4.19,29.4999
				c-5.38,3.79-12.53,4.6-18.83,5.75c-7.83,1.42-15.65,2.83-23.48,4.25c-14.89,2.71-30.48,4.37-45.1,8.3
				c-5.28,1.4299-9.97,4.21-12.29,9.34c-2.37,5.26-1.53,11.1799-0.68,16.6799c6.8,43.8501,44.9,85.9501,91.56,84.74
				c21.26-0.5499,42.31-9.7899,57.2-24.96c7.3199-7.46,13.0699-16.39,16.5699-26.25c1.62-4.59,2.59-9.3199,3.16-14.14
				c0.7-5.89,0.5-12.4099,3.02-17.9199c2.68-5.87,8.39-6.9,14.28-6.42c6.87,0.5699,13.68,2.37,20.5,3.39
				c13.34,1.99,26.82,3.22,40.32,2.97c25.38-0.47,52.24-6.08,73.07-21.3099c17.78-12.9901,31.58-32.29,36.47-53.9301
				C964.1962,984.8712,964.4262,973.9612,961.9462,963.4912z"/>
		</g>
		<g>
			<path fill="none" stroke="#000000" stroke-width="0.5" stroke-linecap="round" stroke-linejoin="round" d="M961.9462,963.4912
				c-2.46-10.36-7.75-23.64-19.54-25.6801c-6.22-1.08-12.73,0.67-18.75,2.13c-7.63,1.85-15.13,4.2-22.73,6.16
				c-12.38,3.19-25.18,5.42-37.71,1.82c-9.88-2.83-19.68-9.22-22.54-19.63c-1.92-6.97-0.6-14.3,0.77-21.23
				c1.42-7.1299,2.8-14.23,3.49-21.48c2.42-25.57-2.16-51.59-12.45-75.07c-10-22.82-26.4-45.81-48.8-57.78
				c-24.77-13.23-53.73-9.59-79.81-2.67c-11.2,2.97-25.17,5.69-31.94,16.15c-3.44,5.3-4.4,11.61-5.08,17.76
				c-0.86,7.72-1.36,15.5-1.74,23.25c-0.55,10.98-0.68,21.96-0.44,32.94c-1.25,1.1-2.02,2.77-1.63,4.83
				c1.44,7.54,3.66,23.3-5.92,26.69c-5.59,1.98-12.58-1.08-18.26-1.73c-6.05-0.69-12.15-0.45-18.13,0.67
				c-22.42,4.18-37.21,24.02-31.19,46.67c6.43,24.17,28.03,37.65,50.45,44.8c13.07,4.17,26.58,6.83,39.52,11.4
				c11.8,4.16,24.35,10.55,30.7401,21.86c5.15,9.11,5.08,22.96-4.19,29.4999c-5.38,3.79-12.53,4.6-18.83,5.75
				c-7.83,1.42-15.65,2.83-23.48,4.25c-14.89,2.71-30.48,4.37-45.1,8.3c-5.28,1.4299-9.97,4.21-12.29,9.34
				c-2.37,5.26-1.53,11.1799-0.68,16.6799c6.8,43.8501,44.9,85.9501,91.56,84.74c21.26-0.5499,42.31-9.7899,57.2-24.96
				c7.3199-7.46,13.0699-16.39,16.5699-26.25c1.62-4.59,2.59-9.3199,3.16-14.14c0.7-5.89,0.5-12.4099,3.02-17.9199
				c2.68-5.87,8.39-6.9,14.28-6.42c6.87,0.5699,13.68,2.37,20.5,3.39c13.34,1.99,26.82,3.22,40.32,2.97
				c25.38-0.47,52.24-6.08,73.07-21.3099c17.78-12.9901,31.58-32.29,36.47-53.9301
				C964.1962,984.8712,964.4262,973.9612,961.9462,963.4912z"/>
		</g>
	</g>
	<g clip-path="url(#SVGID_2_)">
		<g>
			<path fill="#5D4137" d="M1897.6161,360.73c-3.8-14.57-12.73-28.45-28.39-31.67c-15.35-3.14-30.88,2.68-45.47,6.73
				c-29.0701,8.06-60.37,4.52-86.9701-9.81c-13.12-7.06-26.33-16.89-34.7799-29.37c-4.3-6.35-8.29-14.72-5.41-22.44
				c2.37-6.37,8.5599-9.81,14.62-12.03c13.28-4.87,26.6-7.31,38.48-15.53c12.0601-8.35,21.87-19.66,29.0701-32.4
				c17.4299-30.89,18.01-67.69,13.6399-102.0001c-3.8899-30.5-10.58-62.6899-29.46-87.77c-19.34-25.6799-49-38.0699-80.29-41.5499
				c-33.6399-3.75-70.24,1.2001-99.75,18.4701c-27.86,16.2999-49.47,42.8599-64,71.3599
				c-15.2699,29.97-23.0199,64.02-18.0599,97.5701c4.21,28.54,18.96,56.12,41.12,74.73c7.39,6.2,15.49,11.35,24.2,15.28
				c-1.98,2.62-1.6599,6.91,2.42,7.7c15.1,2.93,28.54,10.91,38.1,22.7c-34.64,2.19-68.2-12.48-102.4199-15.91
				c-15.7201-1.58-32.14-1.08-47.2201,4.05c-7.13,2.42-14.9099,5.72-20.5299,10.86c-6.41,5.89-4.75,13.25-2.6901,20.73
				c7.7001,27.94,18.96,57.78,48.3,68.86c34.0399,12.85,68.9099-4.15,101.01-14.54c7.1599-2.32,15.3999-4.97,22.9399-2.96
				c8.34,2.23,12.05,11.25,16.11,18.03c9.92,16.6,20.03,33.08,30.3301,49.45c9.7,15.41,19.25,31.05,29.84,45.87
				c9.17,12.84,19.6799,24.99,33.22,33.38c26.63,16.5,61.33,16.44,89.78,4.78c28.75-11.79,51.51-34.44,68.3099-60.14
				C1890.9561,426.71,1905.9861,392.85,1897.6161,360.73z"/>
		</g>
		<g>
			<path fill="none" stroke="#000000" stroke-width="0.5" stroke-linecap="round" stroke-linejoin="round" d="M1897.6161,360.73
				c-3.8-14.57-12.73-28.45-28.39-31.67c-15.35-3.14-30.88,2.68-45.47,6.73c-29.0701,8.06-60.37,4.52-86.9701-9.81
				c-13.12-7.06-26.33-16.89-34.7799-29.37c-4.3-6.35-8.29-14.72-5.41-22.44c2.37-6.37,8.5599-9.81,14.62-12.03
				c13.28-4.87,26.6-7.31,38.48-15.53c12.0601-8.35,21.87-19.66,29.0701-32.4c17.4299-30.89,18.01-67.69,13.6399-102.0001
				c-3.8899-30.5-10.58-62.6899-29.46-87.77c-19.34-25.6799-49-38.0699-80.29-41.5499c-33.6399-3.75-70.24,1.2001-99.75,18.4701
				c-27.86,16.2999-49.47,42.8599-64,71.3599c-15.2699,29.97-23.0199,64.02-18.0599,97.5701c4.21,28.54,18.96,56.12,41.12,74.73
				c7.39,6.2,15.49,11.35,24.2,15.28c-1.98,2.62-1.6599,6.91,2.42,7.7c15.1,2.93,28.54,10.91,38.1,22.7
				c-34.64,2.19-68.2-12.48-102.4199-15.91c-15.7201-1.58-32.14-1.08-47.2201,4.05c-7.13,2.42-14.9099,5.72-20.5299,10.86
				c-6.41,5.89-4.75,13.25-2.6901,20.73c7.7001,27.94,18.96,57.78,48.3,68.86c34.0399,12.85,68.9099-4.15,101.01-14.54
				c7.1599-2.32,15.3999-4.97,22.9399-2.96c8.34,2.23,12.05,11.25,16.11,18.03c9.92,16.6,20.03,33.08,30.3301,49.45
				c9.7,15.41,19.25,31.05,29.84,45.87c9.17,12.84,19.6799,24.99,33.22,33.38c26.63,16.5,61.33,16.44,89.78,4.78
				c28.75-11.79,51.51-34.44,68.3099-60.14C1890.9561,426.71,1905.9861,392.85,1897.6161,360.73z"/>
		</g>
	</g>
	<g clip-path="url(#SVGID_2_)">
		<g>
			<path fill="#5D4137" d="M627.0197,190.2024c-2.7401-24.87-11.77-47.77-32.94-62.4299c-20.92-14.4801-47.16-17.5-71.82-13.78
				c-13.64,2.05-27.02,6.08-39.78,11.3c-10.62,4.3398-21.25,9.9099-28.79,18.8099c-12.94,15.2799-12.25,37.38-0.48,53.2
				c3.95,5.32,8.95,9.64,14.76,12.55c7.08,6.07,13.92,12.68,19.23,19.94c10.25,14.03-10.32,13.98-18.88,13.33
				c-14.04-1.07-27.91-4.17-41.13-8.98c-12.72-4.61-24.03-12.06-36.58-16.97c-10.61-4.14-22.5-4.94-32.6,1.05
				c-8.77,5.19-13.98,15.13-10.97,25.25c3.15,10.6,13.39,17.85,23.88,19.91c13.79,2.71,28.17-0.69,42.04-1.15
				c7.13-0.24,14.28-0.15,21.41,0.28c7.18,0.43,15.01,0.58,21.94,2.64c7.11,2.11,7.58,8.44,8.1,14.99
				c0.58,7.46,0.67,14.96,0.23,22.43c-0.42,7.03-1.29,14.01-2.66,20.92c-1.19,6.04-2.38,12.99-6.38,17.9
				c-7.12,8.72-20.7,6.07-30.55,6.26c-11.08,0.21-21.39,3.09-28.49,12.11c-7.13,9.05-9.21,20.78-7.5,31.99
				c1.99,12.97,8.52,25,15.48,35.94c7.08,11.12,15.34,21.51,24.3,31.17c33.04,35.66,84.03,72.39,134.77,50.97
				c20.11-8.49,34.37-26.29,40.85-46.88c6.64-21.13,4.5099-43.7-4.84-63.65c-9.72-20.74-26.82-37.81-46.44-49.35
				c-8.61-5.06-25.25-9.06-23.48-21.82c0.84-6.04,4.55-11.55,7.94-16.44c3.86-5.55,8.17-10.77,12.83-15.67
				c8.73-9.17,18.64-16.93,29.48-23.44c9.41-5.65,19.17-10.75,27.81-17.56c8.48-6.68,15.44-15.19,18.42-25.72
				C629.6797,216.8824,628.4097,202.8624,627.0197,190.2024z"/>
		</g>
		<g>
			<path fill="none" stroke="#000000" stroke-width="0.5" stroke-linecap="round" stroke-linejoin="round" d="M627.0197,190.2024
				c-2.7401-24.87-11.77-47.77-32.94-62.4299c-20.92-14.4801-47.16-17.5-71.82-13.78c-13.64,2.05-27.02,6.08-39.78,11.3
				c-10.62,4.3398-21.25,9.9099-28.79,18.8099c-12.94,15.2799-12.25,37.38-0.48,53.2c3.95,5.32,8.95,9.64,14.76,12.55
				c7.08,6.07,13.92,12.68,19.23,19.94c10.25,14.03-10.32,13.98-18.88,13.33c-14.04-1.07-27.91-4.17-41.13-8.98
				c-12.72-4.61-24.03-12.06-36.58-16.97c-10.61-4.14-22.5-4.94-32.6,1.05c-8.77,5.19-13.98,15.13-10.97,25.25
				c3.15,10.6,13.39,17.85,23.88,19.91c13.79,2.71,28.17-0.69,42.04-1.15c7.13-0.24,14.28-0.15,21.41,0.28
				c7.18,0.43,15.01,0.58,21.94,2.64c7.11,2.11,7.58,8.44,8.1,14.99c0.58,7.46,0.67,14.96,0.23,22.43
				c-0.42,7.03-1.29,14.01-2.66,20.92c-1.19,6.04-2.38,12.99-6.38,17.9c-7.12,8.72-20.7,6.07-30.55,6.26
				c-11.08,0.21-21.39,3.09-28.49,12.11c-7.13,9.05-9.21,20.78-7.5,31.99c1.99,12.97,8.52,25,15.48,35.94
				c7.08,11.12,15.34,21.51,24.3,31.17c33.04,35.66,84.03,72.39,134.77,50.97c20.11-8.49,34.37-26.29,40.85-46.88
				c6.64-21.13,4.5099-43.7-4.84-63.65c-9.72-20.74-26.82-37.81-46.44-49.35c-8.61-5.06-25.25-9.06-23.48-21.82
				c0.84-6.04,4.55-11.55,7.94-16.44c3.86-5.55,8.17-10.77,12.83-15.67c8.73-9.17,18.64-16.93,29.48-23.44
				c9.41-5.65,19.17-10.75,27.81-17.56c8.48-6.68,15.44-15.19,18.42-25.72C629.6797,216.8824,628.4097,202.8624,627.0197,190.2024z"
				/>
		</g>
	</g>
	<g clip-path="url(#SVGID_2_)">
		<g>
			<path fill="#5D4137" d="M255.5006,104.6865c-0.37-7.8201-4.95-14.28-12.94-15.54c-9.7-1.54-20.47,3.25-29.22,6.87
				c-8.8199,3.65-18.2599,8.4601-27.95,8.9601c-7.13,0.3699-14.9901-1.3701-20.68-5.9001c-7.18-5.73-6.59-13.71-2.5-21.24
				c4.41-8.1099,9.39-15.4399,11.68-24.51c2.04-8.0399,2.46-16.47,1.43-24.6799c-4.62-37.1699-34.66-63.76-70.75-69.75
				c-18.82-3.12-38.2-1.47-56.32,4.4199c-19.08,6.2001-38.79,16.8-52.29,31.9401c-28,31.39-2.85,78.35,24.26,101.4601
				c6.7,5.71,14,10.5999,21.84,14.58c7.54,11.8099,10.78,26.3099,7.94,40.24c-3.54,17.4401-15.84,32.76-32.19,39.85
				c-14.66,6.36-34.39,9.28-36.18,28.84c-1.49,16.42,9.64,31.84,23.22,39.88c12.75,7.55,29.2,10.1,43.28,4.88
				c17.3199-6.43,27.83-22.55,36.1-38.17c5.18-9.79,10.15-19.69,15.21-29.54c5.02-9.77,9.6-19.97,15.48-29.25
				c4.11-6.5,10.1-14.34,18.4-15.22c5.18-0.5499,10.13,2.01,14.78,3.92c3.91,1.6099,7.88,2.98,12.01,3.9299
				c32.55,7.47,68.77-6.36,87.75-33.88C252.3106,120.3164,255.8806,112.7166,255.5006,104.6865z"/>
		</g>
		<g>
			<path fill="none" stroke="#000000" stroke-width="0.5" stroke-linecap="round" stroke-linejoin="round" d="M255.5006,104.6865
				c-0.37-7.8201-4.95-14.28-12.94-15.54c-9.7-1.54-20.47,3.25-29.22,6.87c-8.8199,3.65-18.2599,8.4601-27.95,8.9601
				c-7.13,0.3699-14.9901-1.3701-20.68-5.9001c-7.18-5.73-6.59-13.71-2.5-21.24c4.41-8.1099,9.39-15.4399,11.68-24.51
				c2.04-8.0399,2.46-16.47,1.43-24.6799c-4.62-37.1699-34.66-63.76-70.75-69.75c-18.82-3.12-38.2-1.47-56.32,4.4199
				c-19.08,6.2001-38.79,16.8-52.29,31.9401c-28,31.39-2.85,78.35,24.26,101.4601c6.7,5.71,14,10.5999,21.84,14.58
				c7.54,11.8099,10.78,26.3099,7.94,40.24c-3.54,17.4401-15.84,32.76-32.19,39.85c-14.66,6.36-34.39,9.28-36.18,28.84
				c-1.49,16.42,9.64,31.84,23.22,39.88c12.75,7.55,29.2,10.1,43.28,4.88c17.3199-6.43,27.83-22.55,36.1-38.17
				c5.18-9.79,10.15-19.69,15.21-29.54c5.02-9.77,9.6-19.97,15.48-29.25c4.11-6.5,10.1-14.34,18.4-15.22
				c5.18-0.5499,10.13,2.01,14.78,3.92c3.91,1.6099,7.88,2.98,12.01,3.9299c32.55,7.47,68.77-6.36,87.75-33.88
				C252.3106,120.3164,255.8806,112.7166,255.5006,104.6865z"/>
		</g>
	</g>
	<g clip-path="url(#SVGID_2_)">
		<g>
			<path fill="#5D4137" d="M283.545,1112.5177c3.32-6.9199,6.95-13.72,11.24-20.1c8.7-12.9301,20.43-22.76,34.94-28.55
				c14.12-5.6399,29.26-8.13,44.09-11.08c14.43-2.86,28.77-6.22,42.1-12.59c12.04-5.76,23.06-13.77,32.53-23.16
				c18.98-18.84,32.3-43.8,36.91-70.17c4.68-26.77,1.83-60.33-18.21-80.65c-20.56-20.86-55.12-22.55-82.65-21.77
				c-27.71,0.79-55.32,6.45-80.75,17.6c-24.51,10.75-46.46,27.16-62.42,48.76c-8.91,12.07-17.74,27.19-16.3199,42.76
				c1.2,13.17,9.62,23.41,21.14,29.34c7.05,3.64,14.64,5.87,22.38,7.42c14.34,8.26,28.68,16.53,43.02,24.8
				c3.26,1.88,7.1,3.61,9.93,6.15c3.48,3.1299,2.8,6.04-0.2,9.29c-5.39,5.84-12.48,10.6799-18.8,15.48
				c-25.52,19.39-56.72,37.17-89.46,25.88c-15.63-5.4-29.4-15.0601-45.02-20.52c-14.95-5.23-31.95-6.71-47.22-1.95
				c-28.23,8.8099-46.03,40.26-31.17,67.6599c7.55,13.91,20.47,24.99,31.97,35.5601c12.11,11.14,24.82,21.65,38.25,31.17
				c26.02,18.4299,55.06,32.71,86.29,39.6399c59.06,13.1101,123.53,2.2201,174.28-30.98c21.9-14.33,49.47-38.33,39.15-67.8199
				c-3.98-11.36-13.09-21.39-25.56-22.74c-15.27-1.66-26.99,9.7899-37.88,18.6699c-24.38,19.89-55.93,30.5901-87.33,30.42
				c-7.86-0.04-15.74-0.73-23.47-2.21c-3.36-0.65-7.41-1.25-10-3.6801c-3.16-2.96-2.16-7.5599-1.02-11.25
				C276.555,1126.5677,280.225,1119.4177,283.545,1112.5177z"/>
		</g>
		<g>
			<path fill="none" stroke="#000000" stroke-width="0.5" stroke-linecap="round" stroke-linejoin="round" d="M283.545,1112.5177
				c3.32-6.9199,6.95-13.72,11.24-20.1c8.7-12.9301,20.43-22.76,34.94-28.55c14.12-5.6399,29.26-8.13,44.09-11.08
				c14.43-2.86,28.77-6.22,42.1-12.59c12.04-5.76,23.06-13.77,32.53-23.16c18.98-18.84,32.3-43.8,36.91-70.17
				c4.68-26.77,1.83-60.33-18.21-80.65c-20.56-20.86-55.12-22.55-82.65-21.77c-27.71,0.79-55.32,6.45-80.75,17.6
				c-24.51,10.75-46.46,27.16-62.42,48.76c-8.91,12.07-17.74,27.19-16.3199,42.76c1.2,13.17,9.62,23.41,21.14,29.34
				c7.05,3.64,14.64,5.87,22.38,7.42c14.34,8.26,28.68,16.53,43.02,24.8c3.26,1.88,7.1,3.61,9.93,6.15
				c3.48,3.1299,2.8,6.04-0.2,9.29c-5.39,5.84-12.48,10.6799-18.8,15.48c-25.52,19.39-56.72,37.17-89.46,25.88
				c-15.63-5.4-29.4-15.0601-45.02-20.52c-14.95-5.23-31.95-6.71-47.22-1.95c-28.23,8.8099-46.03,40.26-31.17,67.6599
				c7.55,13.91,20.47,24.99,31.97,35.5601c12.11,11.14,24.82,21.65,38.25,31.17c26.02,18.4299,55.06,32.71,86.29,39.6399
				c59.06,13.1101,123.53,2.2201,174.28-30.98c21.9-14.33,49.47-38.33,39.15-67.8199c-3.98-11.36-13.09-21.39-25.56-22.74
				c-15.27-1.66-26.99,9.7899-37.88,18.6699c-24.38,19.89-55.93,30.5901-87.33,30.42c-7.86-0.04-15.74-0.73-23.47-2.21
				c-3.36-0.65-7.41-1.25-10-3.6801c-3.16-2.96-2.16-7.5599-1.02-11.25C276.555,1126.5677,280.225,1119.4177,283.545,1112.5177z"/>
		</g>
	</g>
	<g clip-path="url(#SVGID_2_)">
		<g>
			<path fill="#5D4137" d="M1651.7314,569.6592c-1.48-11.6-5.4501-22.68-8.8301-33.81c-4.36-14.33-8.72-28.66-13.08-42.99
				c-6.75-22.18-12.04-47.98-29.1-64.93c-16.59-16.48-40.91-19.62-63.25-19.43c-23.5601,0.2-47.37,2.34-70.58,6.35
				c-23.1201,4-45.92,10.49-66.9701,20.98c-20.76,10.34-41.58,25.18-54.14,45.05c-14.22,22.5-11.1599,48.68-2.22,72.56
				c8.55,22.82,21.5601,43.1,42.3,56.53c10.8099,7,21.48,13.14,30.4,22.62c8.61,9.15,15.59,19.64,22.86,29.85
				c13.49,18.97,29.08,37.46,51.8999,45.14c22.7101,7.64,44.6201-1.84,58.1101-20.8c13.36-18.78,19.75-45.89,10.62-67.72
				c-8.5901-20.55-29.12-32.18-49.3301-38.91c-23.71-7.9-51.8099-9.5-71.86-25.83c-8.4299-6.87-15.33-16.28-17.75-27
				c-2.5499-11.32,1.67-21.91,9.79-29.88c17.47-17.15,45.14-24.92,69.02-25.56c5.02-0.14,10,0.06,14.9399,0.56
				c0.76,1.39,2.13,2.45,4.11,2.6c5.23,0.37,10.4601,0.75,15.6901,1.13c0.6699,0.18,1.34,0.35,2.01,0.54
				c1.26,0.38,2.38,0.26,3.2999-0.16c0.01,0,0.03,0,0.04,0c3.51,0.25,7.01,0.5,10.52,0.76c2.66,0.19,8.14-0.24,9.7999,2.47
				c2.12,3.48-0.63,10.08-1.1899,13.75c-0.86,5.55-1.4,11.14-1.52,16.75c-0.4399,20.85,4.33,42.23,14.86,60.32
				c10.05,17.26,27.4601,34.71,48.01,37.8c10.77,1.63,21.67-2.19,27.54-11.69
				C1652.6614,588.7192,1652.8815,578.6792,1651.7314,569.6592z"/>
		</g>
		<g>
			<path fill="none" stroke="#000000" stroke-width="0.5" stroke-linecap="round" stroke-linejoin="round" d="M1651.7314,569.6592
				c-1.48-11.6-5.4501-22.68-8.8301-33.81c-4.36-14.33-8.72-28.66-13.08-42.99c-6.75-22.18-12.04-47.98-29.1-64.93
				c-16.59-16.48-40.91-19.62-63.25-19.43c-23.5601,0.2-47.37,2.34-70.58,6.35c-23.1201,4-45.92,10.49-66.9701,20.98
				c-20.76,10.34-41.58,25.18-54.14,45.05c-14.22,22.5-11.1599,48.68-2.22,72.56c8.55,22.82,21.5601,43.1,42.3,56.53
				c10.8099,7,21.48,13.14,30.4,22.62c8.61,9.15,15.59,19.64,22.86,29.85c13.49,18.97,29.08,37.46,51.8999,45.14
				c22.7101,7.64,44.6201-1.84,58.1101-20.8c13.36-18.78,19.75-45.89,10.62-67.72c-8.5901-20.55-29.12-32.18-49.3301-38.91
				c-23.71-7.9-51.8099-9.5-71.86-25.83c-8.4299-6.87-15.33-16.28-17.75-27c-2.5499-11.32,1.67-21.91,9.79-29.88
				c17.47-17.15,45.14-24.92,69.02-25.56c5.02-0.14,10,0.06,14.9399,0.56c0.76,1.39,2.13,2.45,4.11,2.6
				c5.23,0.37,10.4601,0.75,15.6901,1.13c0.6699,0.18,1.34,0.35,2.01,0.54c1.26,0.38,2.38,0.26,3.2999-0.16c0.01,0,0.03,0,0.04,0
				c3.51,0.25,7.01,0.5,10.52,0.76c2.66,0.19,8.14-0.24,9.7999,2.47c2.12,3.48-0.63,10.08-1.1899,13.75
				c-0.86,5.55-1.4,11.14-1.52,16.75c-0.4399,20.85,4.33,42.23,14.86,60.32c10.05,17.26,27.4601,34.71,48.01,37.8
				c10.77,1.63,21.67-2.19,27.54-11.69C1652.6614,588.7192,1652.8815,578.6792,1651.7314,569.6592z"/>
		</g>
	</g>
	<g clip-path="url(#SVGID_2_)">
		<g>
			<path fill="#3E2723" d="M740.5277,604.48c-4.53-8.72-11.81-17.45-21.05-21.3c-11.17-4.66-23.63-0.76-32.93,6.17
				c-9.62,7.17-15.92,18.4901-25.91,24.9901c-11.68,7.61-19.1-5.83-21.99-15.39c-3.61-11.92-6.86-22.93-17.43-30.56
				c-8.98-6.48-20.72-8.95-31.51-6.23c-27.33,6.91-36.23,37.09-37.46,61.83c-0.17,3.31,2.42,4.91,5,4.8
				c0.5,5.62,1.12,11.21,2.06,16.69c2.06,11.97,13.24,11.72,22.9,10.77c7.83-0.78,25.08-0.91,23.4,11.57
				c-0.67,4.9-6.59,4.6-10.39,5.41c-4.73,1.01-9.01,3.21-11.63,7.42c-4.37,7.05-3.15,16.67,1.28,23.4
				c6.04,9.17,17.47,11.85,27.85,11.58c12.02-0.31,24.26-3.02,36.03-5.28c13-2.5,25.92-5.6,38.42-10
				c20.85-7.36,43.86-18.31,54.03-39.22C749.7977,643.46,749.6077,621.95,740.5277,604.48z"/>
		</g>
		<g>
			<path fill="none" stroke="#000000" stroke-width="0.5" stroke-linecap="round" stroke-linejoin="round" d="M740.5277,604.48
				c-4.53-8.72-11.81-17.45-21.05-21.3c-11.17-4.66-23.63-0.76-32.93,6.17c-9.62,7.17-15.92,18.4901-25.91,24.9901
				c-11.68,7.61-19.1-5.83-21.99-15.39c-3.61-11.92-6.86-22.93-17.43-30.56c-8.98-6.48-20.72-8.95-31.51-6.23
				c-27.33,6.91-36.23,37.09-37.46,61.83c-0.17,3.31,2.42,4.91,5,4.8c0.5,5.62,1.12,11.21,2.06,16.69
				c2.06,11.97,13.24,11.72,22.9,10.77c7.83-0.78,25.08-0.91,23.4,11.57c-0.67,4.9-6.59,4.6-10.39,5.41
				c-4.73,1.01-9.01,3.21-11.63,7.42c-4.37,7.05-3.15,16.67,1.28,23.4c6.04,9.17,17.47,11.85,27.85,11.58
				c12.02-0.31,24.26-3.02,36.03-5.28c13-2.5,25.92-5.6,38.42-10c20.85-7.36,43.86-18.31,54.03-39.22
				C749.7977,643.46,749.6077,621.95,740.5277,604.48z"/>
		</g>
	</g>
	<g clip-path="url(#SVGID_2_)">
		<g>
			<path fill="#3E2723" d="M1294.4436,866.2677c-7.02-16.6-26.1-22.83-42.61-25.23c-32.23-4.71-66.1901,6.17-89.8,28.61
				c-3.83,3.64-7.33,7.62-10.52,11.83c-0.22-0.33-0.4399-0.67-0.6599-1c0-0.03,0.01-0.05,0.01-0.07
				c4.87-32.67-7.11-66.31-30.7101-89.33c-21.5499-21.03-63.2899-39.2599-89.38-15.3199c-12.72,11.67-16.04,31.0099-12.65,47.3199
				c3.18,15.34,12.5101,29.22,25.23,38.28c6.59,4.69,14.21,7.71,22.13,9.19c10.1,1.9,21,1.64,30.5699,5.76
				c7.38,3.18,14.5601,9.53,13.55,18.33c-1.15,9.96-9.8301,17.03-17.66,22.1c-7.87,5.09-16.24,9.57-22.9,16.29
				c-5.38,5.44-9.5699,11.93-12.5599,18.95c-6.0801,14.3-7.1,30.52-3.4401,45.59c7.9601,32.77,38.5801,53.08,70.99,55.9999
				c37.2201,3.35,69-18.0701,94.03-43.42c13.58-13.75,26.3-28.53,38.59-43.43c12.5901-15.26,24.4801-31.41,32.4601-49.62
				C1295.9236,901.5577,1301.4236,882.7377,1294.4436,866.2677z"/>
		</g>
		<g>
			<path fill="none" stroke="#000000" stroke-width="0.5" stroke-linecap="round" stroke-linejoin="round" d="M1294.4436,866.2677
				c-7.02-16.6-26.1-22.83-42.61-25.23c-32.23-4.71-66.1901,6.17-89.8,28.61c-3.83,3.64-7.33,7.62-10.52,11.83
				c-0.22-0.33-0.4399-0.67-0.6599-1c0-0.03,0.01-0.05,0.01-0.07c4.87-32.67-7.11-66.31-30.7101-89.33
				c-21.5499-21.03-63.2899-39.2599-89.38-15.3199c-12.72,11.67-16.04,31.0099-12.65,47.3199c3.18,15.34,12.5101,29.22,25.23,38.28
				c6.59,4.69,14.21,7.71,22.13,9.19c10.1,1.9,21,1.64,30.5699,5.76c7.38,3.18,14.5601,9.53,13.55,18.33
				c-1.15,9.96-9.8301,17.03-17.66,22.1c-7.87,5.09-16.24,9.57-22.9,16.29c-5.38,5.44-9.5699,11.93-12.5599,18.95
				c-6.0801,14.3-7.1,30.52-3.4401,45.59c7.9601,32.77,38.5801,53.08,70.99,55.9999c37.2201,3.35,69-18.0701,94.03-43.42
				c13.58-13.75,26.3-28.53,38.59-43.43c12.5901-15.26,24.4801-31.41,32.4601-49.62
				C1295.9236,901.5577,1301.4236,882.7377,1294.4436,866.2677z"/>
		</g>
	</g>
	<g clip-path="url(#SVGID_2_)">
		<g>
			<path fill="#3E2723" d="M839.5698,102.2544c-7.14-16.46-18.48-29.76-32.86-40.34c-13.7-10.08-29.32-17.7001-41.81-29.39
				c-13.6-12.72-20.82-30.37-18.73-49.05c1.06-9.5599,5.04-17.77,9.65-26.0699c4.25-7.65,8.28-15.61,8.5-24.54
				c0.08-2.99-0.29-6.01-1.13-8.87c1.27-2.79,0.15-6.6499-3.37-7.0801c-1.11-1.5698-2.44-3-4-4.24
				c-3.67-2.8999-8.48,0.1201-8.78,3.51c-25.1-4.0399-45.86-23.75-66.15-37.83c-12.04-8.35-25.07-16-39.47-19.36
				c-8.73-2.03-18.47-2.96-26.54,1.76c-7.43,4.35-12.38,12.26-17.16,19.1699c-10.91,15.79-19.96,33.2101-22.38,52.4701
				c-2.21,17.6901,1.49,35.5199,8.69,51.7001c15.68,35.24,47.35,59.0798,80.88,76.1299c8.62,4.37,17.41,8.38,26.28,12.22
				c8.12,3.52,16.79,6.4301,24.33,11.1401c9.21,5.7599,11.69,14.2699,11.94,24.72c0.25,10.5699-0.88,21.1099-2.61,31.53
				c-3.45,20.73-8.89,41.1599-10.42,62.1899c-0.65,8.95-1.41,19.33,2.69,27.63c3.82,7.75,11.56,11.62,19.42,14.18
				c20.08,6.53,41.95,8.89,62.98,7.33c9.34-0.69,17.62-2.76,23.32-10.75c5.45-7.66,8.96-17.25,12.49-25.92
				C849.8597,178.8844,855.2598,138.4243,839.5698,102.2544z"/>
		</g>
		<g>
			<path fill="none" stroke="#000000" stroke-width="0.5" stroke-linecap="round" stroke-linejoin="round" d="M839.5698,102.2544
				c-7.14-16.46-18.48-29.76-32.86-40.34c-13.7-10.08-29.32-17.7001-41.81-29.39c-13.6-12.72-20.82-30.37-18.73-49.05
				c1.06-9.5599,5.04-17.77,9.65-26.0699c4.25-7.65,8.28-15.61,8.5-24.54c0.08-2.99-0.29-6.01-1.13-8.87
				c1.27-2.79,0.15-6.6499-3.37-7.0801c-1.11-1.5698-2.44-3-4-4.24c-3.67-2.8999-8.48,0.1201-8.78,3.51
				c-25.1-4.0399-45.86-23.75-66.15-37.83c-12.04-8.35-25.07-16-39.47-19.36c-8.73-2.03-18.47-2.96-26.54,1.76
				c-7.43,4.35-12.38,12.26-17.16,19.1699c-10.91,15.79-19.96,33.2101-22.38,52.4701c-2.21,17.6901,1.49,35.5199,8.69,51.7001
				c15.68,35.24,47.35,59.0798,80.88,76.1299c8.62,4.37,17.41,8.38,26.28,12.22c8.12,3.52,16.79,6.4301,24.33,11.1401
				c9.21,5.7599,11.69,14.2699,11.94,24.72c0.25,10.5699-0.88,21.1099-2.61,31.53c-3.45,20.73-8.89,41.1599-10.42,62.1899
				c-0.65,8.95-1.41,19.33,2.69,27.63c3.82,7.75,11.56,11.62,19.42,14.18c20.08,6.53,41.95,8.89,62.98,7.33
				c9.34-0.69,17.62-2.76,23.32-10.75c5.45-7.66,8.96-17.25,12.49-25.92C849.8597,178.8844,855.2598,138.4243,839.5698,102.2544z"/>
		</g>
	</g>
	<g clip-path="url(#SVGID_2_)">
		<g>
			<path fill="#3E2723" d="M158.5639,806.915c-5.49-3.75-12.23-5.82-18.87-5.93c-7.71-0.1201-13.98,3.16-20.82,6.23
				c-7.23,3.23-15.21,3.06-21.11-2.8c-5.28-5.25-6.07-13.84-2.4-20.23c3.41-5.95,10.29-9.1,15.33-13.45
				c4.88-4.23,8.47-10,8.29-16.65c-0.46-16.77-17.65-23.66-31.71-25.56c-7.24-0.97-15.4-2.17-21.34,3.13
				c-4.96,4.42-6.71,11.47-6.52,17.9c0.23,7.4301,4.18,16.29,0.55,23.34c-2.33,4.52-7.57,7.23-12.45,7.91
				c-3.26,0.45-6.37,0.03-9.09-1.35c0.72-2.43-0.16-5.24-3.36-5.91c-14.06-2.96-29.31-0.6-40.62,8.68
				c-10.41,8.54-14.94,22.38-12.13,35.48c1.36,6.37,4.75,12.37,9.73,16.59c5.55,4.71,14.4399,6.8199,16.85,14.39
				c4.92,15.42-11.37,29.21-17.61,41.56c-6.4,12.69-6.61,28.2,0.81,40.56c7.35,12.2401,21.45,18.6201,35.5099,16.55
				c7.1201-1.05,13.4301-4.37,18.44-9.52c3.61-3.72,8.55-12.11,14.67-11.15c5.33,0.83,8.14,8.4,10.29,12.54
				c3.07,5.93,6.32,11.46,11.8,15.49c25.73,18.93,65.23-8.65,58.54-39.32c-1.61-7.36-6.53-12.92-12.34-17.41
				c-5.52-4.27-12.52-7.66-16.18-13.83c-3.24-5.47-4.15-12.85,3.68-14.16c7.59-1.2599,15.53-0.35,23.21-1.53
				c14.81-2.27,27.98-10.67,31.94-25.8C175.2339,829.015,170.2239,814.895,158.5639,806.915z"/>
		</g>
		<g>
			<path fill="none" stroke="#000000" stroke-width="0.5" stroke-linecap="round" stroke-linejoin="round" d="M158.5639,806.915
				c-5.49-3.75-12.23-5.82-18.87-5.93c-7.71-0.1201-13.98,3.16-20.82,6.23c-7.23,3.23-15.21,3.06-21.11-2.8
				c-5.28-5.25-6.07-13.84-2.4-20.23c3.41-5.95,10.29-9.1,15.33-13.45c4.88-4.23,8.47-10,8.29-16.65
				c-0.46-16.77-17.65-23.66-31.71-25.56c-7.24-0.97-15.4-2.17-21.34,3.13c-4.96,4.42-6.71,11.47-6.52,17.9
				c0.23,7.4301,4.18,16.29,0.55,23.34c-2.33,4.52-7.57,7.23-12.45,7.91c-3.26,0.45-6.37,0.03-9.09-1.35
				c0.72-2.43-0.16-5.24-3.36-5.91c-14.06-2.96-29.31-0.6-40.62,8.68c-10.41,8.54-14.94,22.38-12.13,35.48
				c1.36,6.37,4.75,12.37,9.73,16.59c5.55,4.71,14.4399,6.8199,16.85,14.39c4.92,15.42-11.37,29.21-17.61,41.56
				c-6.4,12.69-6.61,28.2,0.81,40.56c7.35,12.2401,21.45,18.6201,35.5099,16.55c7.1201-1.05,13.4301-4.37,18.44-9.52
				c3.61-3.72,8.55-12.11,14.67-11.15c5.33,0.83,8.14,8.4,10.29,12.54c3.07,5.93,6.32,11.46,11.8,15.49
				c25.73,18.93,65.23-8.65,58.54-39.32c-1.61-7.36-6.53-12.92-12.34-17.41c-5.52-4.27-12.52-7.66-16.18-13.83
				c-3.24-5.47-4.15-12.85,3.68-14.16c7.59-1.2599,15.53-0.35,23.21-1.53c14.81-2.27,27.98-10.67,31.94-25.8
				C175.2339,829.015,170.2239,814.895,158.5639,806.915z"/>
		</g>
	</g>
	<g clip-path="url(#SVGID_2_)">
		<g>
			<path fill="#8D6E63" d="M511.7165,571.9256c-5.99-5.41-13.59-10.25-21.59-11.93c-9.22-1.95-13.94,4.56-17.89,11.7599
				c-4.91,8.95-10.48,17.57-16.77,25.6201c-5.5,7.04-12.07,16.62-20.42,20.43c-9.49,4.33-12.14-6.08-11.01-13.36
				c1.48-9.52,6.18-18.66,2.94-28.42c-4.33-13.06-19.15-18.1-31.77-16.32c-16.15,2.27-26.19,15.67-31.17,30.3
				c-1.69,4.96-2.8,10.07-3.65,15.2401c-0.58,0.4-1.1,0.96-1.52,1.72c-4.31,7.87-0.48,16.23,5.42,22.1
				c5.08,5.04,13.52,11.33,6.16,18.32c-6.13,5.82-14.58,5.93-22.44,5.04c-9.68-1.1-19.59-3.12-29.01,0.48
				c-14.29,5.47-19.97,20.48-20.58,34.74c-0.64,14.76,2.93,33.06,13.04,44.33c10.31,11.49,32.18,12.27,37.43-4.65
				c2.63-8.49-0.53-17.42,1.16-26c1.39-7.06,9.05-18.03,17.5-12.24c6.5,4.46,3.78,17.24,4.58,23.98c0.99,8.29,3.76,16.33,8.09,23.48
				c9.13,15.08,24.51,25.15,41.99,27.39c17.04,2.19,37.41-3.05,48.29-17.16c5.52-7.16,7.28-16.12,7.13-25
				c-0.08-4.6-0.65-9.17-1.27-13.72c-0.55-4.04-1.26-8.02-4.92-10.4c-3.46-2.25-7.57-1.68-11.35-0.67
				c-5.45,1.45-10.75,3.37-16.33,4.34c-8.07,1.4-18.81,0.56-23.8-7.02c-4.93-7.5,0.27-15.92,6.36-20.79
				c7.72-6.17,17.05-7.19,26.62-7.08c19.22,0.22,37.82,2.21,54.18-9.91c13.15-9.75,22.07-24.85,23.01-41.33
				C531.0365,599.0756,523.6265,582.6656,511.7165,571.9256z"/>
		</g>
		<g>
			<path fill="none" stroke="#000000" stroke-width="0.5" stroke-linecap="round" stroke-linejoin="round" d="M511.7165,571.9256
				c-5.99-5.41-13.59-10.25-21.59-11.93c-9.22-1.95-13.94,4.56-17.89,11.7599c-4.91,8.95-10.48,17.57-16.77,25.6201
				c-5.5,7.04-12.07,16.62-20.42,20.43c-9.49,4.33-12.14-6.08-11.01-13.36c1.48-9.52,6.18-18.66,2.94-28.42
				c-4.33-13.06-19.15-18.1-31.77-16.32c-16.15,2.27-26.19,15.67-31.17,30.3c-1.69,4.96-2.8,10.07-3.65,15.2401
				c-0.58,0.4-1.1,0.96-1.52,1.72c-4.31,7.87-0.48,16.23,5.42,22.1c5.08,5.04,13.52,11.33,6.16,18.32
				c-6.13,5.82-14.58,5.93-22.44,5.04c-9.68-1.1-19.59-3.12-29.01,0.48c-14.29,5.47-19.97,20.48-20.58,34.74
				c-0.64,14.76,2.93,33.06,13.04,44.33c10.31,11.49,32.18,12.27,37.43-4.65c2.63-8.49-0.53-17.42,1.16-26
				c1.39-7.06,9.05-18.03,17.5-12.24c6.5,4.46,3.78,17.24,4.58,23.98c0.99,8.29,3.76,16.33,8.09,23.48
				c9.13,15.08,24.51,25.15,41.99,27.39c17.04,2.19,37.41-3.05,48.29-17.16c5.52-7.16,7.28-16.12,7.13-25
				c-0.08-4.6-0.65-9.17-1.27-13.72c-0.55-4.04-1.26-8.02-4.92-10.4c-3.46-2.25-7.57-1.68-11.35-0.67
				c-5.45,1.45-10.75,3.37-16.33,4.34c-8.07,1.4-18.81,0.56-23.8-7.02c-4.93-7.5,0.27-15.92,6.36-20.79
				c7.72-6.17,17.05-7.19,26.62-7.08c19.22,0.22,37.82,2.21,54.18-9.91c13.15-9.75,22.07-24.85,23.01-41.33
				C531.0365,599.0756,523.6265,582.6656,511.7165,571.9256z"/>
		</g>
	</g>
	<g clip-path="url(#SVGID_2_)">
		<g>
			<path fill="#3E2723" d="M1107.056,526.0787c-4.65-7.7-13.65-11.49-22.24-12.55c-11.64-1.43-22.87,3.16-34.4601,3.18
				c-8.6599,0-20.33-4.79-19.34-15.14c0.11-1.15-0.13-2.09-0.58-2.82c-4.38-38.16-31.17-77.14-73.4301-75.2
				c-18.16,0.83-35.74,9.41-45.05,25.47c-5.62,9.68-7.89,20.74-9.19,31.74c-1.21,10.29-2.88,21.94,1.31,31.76
				c6.28,14.68,23.03,17.89,36.94,21.2401c6.28,1.5099,13.34,3,18.54,7.08c7.42,5.81,6.61,15.81,1.2599,22.85
				c-6.66,8.77-18.67,12.11-28.83,14.72c-10.31,2.65-22.71,4.42-31.44-3.15c-11.92-10.33-13.13-28.78-21.42-41.6
				c-10.18-15.74-30.1-20.01-45.59-8.79c-17.36,12.58-19.28,37.14-11.88,55.82c7.12,17.96,21.81,32.16,38.77,40.98
				c21.15,10.99,45.45,13.75,68.96,14.13c10.19,0.16,20.59-0.75,30.7,0.79c7.7,1.18,16.9,3.9,20.15,11.79
				c3.98,9.64-0.42,20.66,4.84,30.2c4.94,8.9301,15.71,13.07,25.16,15.12c19.22,4.15,41.85,0.2,55.2399-15.25
				c12.0601-13.92,16.1901-35.8,5.4301-51.7c-5.67-8.39-14.09-14.05-22.36-19.62c-8.92-6.01-19-13.11-21.6901-24.23
				c-2.5699-10.6,5.37-17.49,14.8101-19.94c11.49-2.99,23.5,0.26,35.16-0.17c10.47-0.39,20.72-3.75,27.5599-12.07
				C1110.116,543.7487,1111.866,534.0587,1107.056,526.0787z"/>
		</g>
		<g>
			<path fill="none" stroke="#000000" stroke-width="0.5" stroke-linecap="round" stroke-linejoin="round" d="M1107.056,526.0787
				c-4.65-7.7-13.65-11.49-22.24-12.55c-11.64-1.43-22.87,3.16-34.4601,3.18c-8.6599,0-20.33-4.79-19.34-15.14
				c0.11-1.15-0.13-2.09-0.58-2.82c-4.38-38.16-31.17-77.14-73.4301-75.2c-18.16,0.83-35.74,9.41-45.05,25.47
				c-5.62,9.68-7.89,20.74-9.19,31.74c-1.21,10.29-2.88,21.94,1.31,31.76c6.28,14.68,23.03,17.89,36.94,21.2401
				c6.28,1.5099,13.34,3,18.54,7.08c7.42,5.81,6.61,15.81,1.2599,22.85c-6.66,8.77-18.67,12.11-28.83,14.72
				c-10.31,2.65-22.71,4.42-31.44-3.15c-11.92-10.33-13.13-28.78-21.42-41.6c-10.18-15.74-30.1-20.01-45.59-8.79
				c-17.36,12.58-19.28,37.14-11.88,55.82c7.12,17.96,21.81,32.16,38.77,40.98c21.15,10.99,45.45,13.75,68.96,14.13
				c10.19,0.16,20.59-0.75,30.7,0.79c7.7,1.18,16.9,3.9,20.15,11.79c3.98,9.64-0.42,20.66,4.84,30.2
				c4.94,8.9301,15.71,13.07,25.16,15.12c19.22,4.15,41.85,0.2,55.2399-15.25c12.0601-13.92,16.1901-35.8,5.4301-51.7
				c-5.67-8.39-14.09-14.05-22.36-19.62c-8.92-6.01-19-13.11-21.6901-24.23c-2.5699-10.6,5.37-17.49,14.8101-19.94
				c11.49-2.99,23.5,0.26,35.16-0.17c10.47-0.39,20.72-3.75,27.5599-12.07C1110.116,543.7487,1111.866,534.0587,1107.056,526.0787z"
				/>
		</g>
	</g>
	<g clip-path="url(#SVGID_2_)">
		<g>
			<path fill="#8D6E63" d="M1345.9032,644.2204c-2.15-9.52-10.64-12.14-18.0701-16.54c-13.86-8.22-20.6399-26.5-16.3999-41.89
				c2.4299-8.79,9.11-15.47,12.33-23.93c2.8-7.38,2.03-15.6201-2.88-21.9c-9.22-11.77-27.24-13.27-40.91-11.21
				c-15.11,2.28-38,8.14-45.4-10.18c-5.2599-13.01-2.36-29.17-11.46-40.67c-12.22-15.43-34.3199-6.23-46.79,4.04
				c-6.7899,5.59-11.6899,13.43-11.59,22.45c0.1,8.44,5.5801,18.4,0.1,26.1c-3.6,5.06-10.1499,7.66-15.72,9.85
				c-6.45,2.55-13.08,4.76-19.23,7.99c-15.46,8.13-21.96,23.77-19.55,40.82c2.38,16.75,12.39,31.14,20.99,45.26
				c4.28,7.05,8.5701,14.26,11.4501,22.02c3.63,9.76,4.09,19.39,3.13,29.72c-1.6901,18.08-4.76,42.17,13.36,53.56
				c6.74,4.24,15.77,5.58,23.16,2.27c8.1899-3.6801,11.6799-12.13,12.74-20.56c1.1599-9.34-0.9-19.01,1.0499-28.2401
				c1.2101-5.73,4.89-9.29,8.6901-12.84c3.39,0.57,7.16-1.84,5.62-5.76c0.9-1.13,1.73-2.32,2.42-3.64c3.6-6.93,2.7-15.09-3.76-19.79
				c-1.0901-0.79-2.17-1.03-3.15-0.89c0.2-8.21,2.0599-16.38,5.5-24c3.36-7.47,8.0699-14.28,14.03-19.91
				c2.8999-2.73,6.0599-5.12,9.5-7.15c1.8199-1.08,4.2599-2.83,6.3899-2.91c3.3601-0.12,5.0701,3.67,6.6001,6.27
				c5.33,9.04,8.84,19.29,9.99,29.74c1.02,9.3101,0.0699,18.7,0.8199,28.03c0.66,8.18,2.47,16.46,7.86,22.91
				c5.54,6.64,13.88,10.15,22.5,9.8701c9.5601-0.3101,18.75-4.26,26.92-8.98c7.77-4.49,15.49-9.84,21.35-16.71
				C1342.8431,661.1604,1347.8331,652.8004,1345.9032,644.2204z"/>
		</g>
		<g>
			<path fill="none" stroke="#000000" stroke-width="0.5" stroke-linecap="round" stroke-linejoin="round" d="M1345.9032,644.2204
				c-2.15-9.52-10.64-12.14-18.0701-16.54c-13.86-8.22-20.6399-26.5-16.3999-41.89c2.4299-8.79,9.11-15.47,12.33-23.93
				c2.8-7.38,2.03-15.6201-2.88-21.9c-9.22-11.77-27.24-13.27-40.91-11.21c-15.11,2.28-38,8.14-45.4-10.18
				c-5.2599-13.01-2.36-29.17-11.46-40.67c-12.22-15.43-34.3199-6.23-46.79,4.04c-6.7899,5.59-11.6899,13.43-11.59,22.45
				c0.1,8.44,5.5801,18.4,0.1,26.1c-3.6,5.06-10.1499,7.66-15.72,9.85c-6.45,2.55-13.08,4.76-19.23,7.99
				c-15.46,8.13-21.96,23.77-19.55,40.82c2.38,16.75,12.39,31.14,20.99,45.26c4.28,7.05,8.5701,14.26,11.4501,22.02
				c3.63,9.76,4.09,19.39,3.13,29.72c-1.6901,18.08-4.76,42.17,13.36,53.56c6.74,4.24,15.77,5.58,23.16,2.27
				c8.1899-3.6801,11.6799-12.13,12.74-20.56c1.1599-9.34-0.9-19.01,1.0499-28.2401c1.2101-5.73,4.89-9.29,8.6901-12.84
				c3.39,0.57,7.16-1.84,5.62-5.76c0.9-1.13,1.73-2.32,2.42-3.64c3.6-6.93,2.7-15.09-3.76-19.79c-1.0901-0.79-2.17-1.03-3.15-0.89
				c0.2-8.21,2.0599-16.38,5.5-24c3.36-7.47,8.0699-14.28,14.03-19.91c2.8999-2.73,6.0599-5.12,9.5-7.15
				c1.8199-1.08,4.2599-2.83,6.3899-2.91c3.3601-0.12,5.0701,3.67,6.6001,6.27c5.33,9.04,8.84,19.29,9.99,29.74
				c1.02,9.3101,0.0699,18.7,0.8199,28.03c0.66,8.18,2.47,16.46,7.86,22.91c5.54,6.64,13.88,10.15,22.5,9.8701
				c9.5601-0.3101,18.75-4.26,26.92-8.98c7.77-4.49,15.49-9.84,21.35-16.71
				C1342.8431,661.1604,1347.8331,652.8004,1345.9032,644.2204z"/>
		</g>
	</g>
	<g clip-path="url(#SVGID_2_)">
		<g>
			<path fill="#3E2723" d="M853.343,315.3138c-8.37-12.08-18.88-23.52-33-28.68c-16.7-6.1-35.08-0.74-50.75,5.86
				c-14.22,5.99-27.71,14.38-36.79,27.14c-7.95,11.17-11.12,26.11-7.53,39.45c1.74,6.48,5.2,12.31,10.04,16.94
				c0.3,0.28,0.6,0.52,0.92,0.71c0.35,5.63,0.18,11.29-0.6,16.89c-0.29,2.12-0.61,4.29-1.17,6.36c-0.71,2.66-1.51,2.66-3.88,1.7
				c-4.02-1.63-7.92-4.68-11.51-7.09c-7.27-4.89-14.16-10.32-20.62-16.24c-5.9-5.41-11.12-11.88-17.99-16.13
				c-5.96-3.69-13.37-5.11-19.6-1.17c-5.33,3.38-7.6,10.02-7.16,16.09c1.2,16.21,18.74,22.7,31.21,28.82
				c8.78,4.3,17.5601,8.58,26.32,12.9c6.9901,3.44,15.42,7.17,19.17,14.45c3.29,6.37,1.84,14.12-5.7401,15.98
				c-6.3799,1.57-13.3199-0.41-19.41-2.29c-11.93-3.7-28.23-7.04-36.93,4.71c-9.45,12.77-0.3,30.29,6.03,42.31
				c7.16,13.58,16.9,26.73,30.54,34.34c12.96,7.2401,29.07,9.53,42.84,3.23c13.2401-6.06,20.93-19.1,27.33-31.53
				c7.35-14.26,15.1-27.67,26.36-39.29c11.63-12.01,25.57-19.95,39.3-29.19c12.67-8.52,23.22-18.95,28.59-33.5
				C879.433,370.6738,869.313,338.3738,853.343,315.3138z"/>
		</g>
		<g>
			<path fill="none" stroke="#000000" stroke-width="0.5" stroke-linecap="round" stroke-linejoin="round" d="M853.343,315.3138
				c-8.37-12.08-18.88-23.52-33-28.68c-16.7-6.1-35.08-0.74-50.75,5.86c-14.22,5.99-27.71,14.38-36.79,27.14
				c-7.95,11.17-11.12,26.11-7.53,39.45c1.74,6.48,5.2,12.31,10.04,16.94c0.3,0.28,0.6,0.52,0.92,0.71
				c0.35,5.63,0.18,11.29-0.6,16.89c-0.29,2.12-0.61,4.29-1.17,6.36c-0.71,2.66-1.51,2.66-3.88,1.7c-4.02-1.63-7.92-4.68-11.51-7.09
				c-7.27-4.89-14.16-10.32-20.62-16.24c-5.9-5.41-11.12-11.88-17.99-16.13c-5.96-3.69-13.37-5.11-19.6-1.17
				c-5.33,3.38-7.6,10.02-7.16,16.09c1.2,16.21,18.74,22.7,31.21,28.82c8.78,4.3,17.5601,8.58,26.32,12.9
				c6.9901,3.44,15.42,7.17,19.17,14.45c3.29,6.37,1.84,14.12-5.7401,15.98c-6.3799,1.57-13.3199-0.41-19.41-2.29
				c-11.93-3.7-28.23-7.04-36.93,4.71c-9.45,12.77-0.3,30.29,6.03,42.31c7.16,13.58,16.9,26.73,30.54,34.34
				c12.96,7.2401,29.07,9.53,42.84,3.23c13.2401-6.06,20.93-19.1,27.33-31.53c7.35-14.26,15.1-27.67,26.36-39.29
				c11.63-12.01,25.57-19.95,39.3-29.19c12.67-8.52,23.22-18.95,28.59-33.5C879.433,370.6738,869.313,338.3738,853.343,315.3138z"/>
		</g>
	</g>
	<g clip-path="url(#SVGID_2_)">
		<g>
			<rect fill="none" stroke="#000000" stroke-miterlimit="10" width="1900" height="1200"/>
		</g>
	</g>
</g>
</svg>
