<?xml version="1.0" encoding="utf-8"?>
<!-- Generator: Adobe Illustrator 19.1.0, SVG Export Plug-In . SVG Version: 6.00 Build 0)  -->
<svg version="1.1" id="Layer_1" xmlns="http://www.w3.org/2000/svg" xmlns:xlink="http://www.w3.org/1999/xlink" x="0px" y="0px"
	 width="349.1px" height="159.8px" viewBox="0 0 349.1 159.8" style="enable-background:new 0 0 349.1 159.8;" xml:space="preserve"
	>
<style type="text/css">
	.st0{fill:#FFFFFF;}
</style>
<path class="st0" d="M262.3,21c-0.5,0.4-5.6,0.7-24.6,1.2c-7,0.2-15.3,0.5-18.5,0.6"/>
<title>Layer 1</title>
<g id="layer1">
	<path id="path2189" class="st0" d="M163.1,108.3c-0.6-0.4-0.9-1-0.9-1.8c0-0.7-0.2-1.8-0.5-2.4c-0.3-0.7-0.8-2.5-1.2-4
		c-0.4-1.5-1.3-4.9-2-7.6c-1.5-5.7-2.7-12.8-3.3-19.1c-0.2-2.4-0.5-4.6-0.6-4.7c-0.1-0.2-1-0.5-2-0.7c-2.1-0.5-16.2-0.6-16.8-0.1
		c-0.2,0.2-2.3,0.4-4.5,0.6c-4.3,0.2-4.9,0.5-5.8,2.4c-0.4,1-0.4,1.4,0.1,2.5c0.8,1.8,0.2,3-1.6,3.4c-1.7,0.3-2.7,1.4-5.4,6.3
		c-3.6,6.3-3.8,7-3.5,7.7c0.6,1.1,0.4,3-0.4,3.8c-1.1,1.1-3,1-9.8-0.4C94,91.9,92.2,91,93.1,87.9c0.2-0.7,0.6-1.6,0.9-1.9
		c0.3-0.3,2.4-3.3,4.6-6.7c15.5-23.2,15.5-23.3,14.2-25.9c-0.9-1.8-2.9-3.8-4.5-4.6c-0.8-0.4-2.4-0.7-4.1-0.8
		c-1.5,0-2.8-0.1-2.8-0.2c0-0.1-0.4-5.6-0.5-7.4c0-0.2-0.8-0.3-1.8-0.3c-1.2,0-1.9-0.2-2-0.6c-0.3-0.7-4.5-0.9-4.5-0.2
		c0,0.2-1.8,0.4-4.8,0.4c-4.7,0-4.8,0-7.5,1.4c-2.5,1.2-3.1,1.4-5.9,1.4c-2.5,0-3.2,0.2-3.8,0.7c-0.6,0.6-1.5,0.7-7.5,0.8l-6.9,0.1
		v3.9c0,3.1-0.1,4.1-0.7,4.6c-0.4,0.4-0.7,0.9-0.8,1.1c-0.1,0.3-1.3,0.5-2.9,0.6c-1.5,0.1-3,0.1-3.4,0.1c-0.5,0-0.7,0.4-0.7,1.2
		c0,1-0.2,1.2-1.3,1.5c-2,0.5-3.5,0.2-3.5-0.9c0-1.8-0.3-1.9-2.7-1.8c-2,0.1-2.6,0.4-5.2,2.2c-1.6,1.2-4.7,3.3-6.8,4.8
		c-4.4,3.2-4.5,3.1-4.7-1.5c0-1.5-0.2-2.8-0.4-2.8c-0.2,0-3,1.3-6.3,2.9c-3.3,1.6-7.1,3.3-8.4,3.8c-1.8,0.8-2.4,1.2-2.9,2.2
		c-0.6,1.5-1.5,2-2.3,1.2c-0.3-0.3-0.9-2.6-1.3-5.2C0.6,52.8,0,44,0,33c0-7.1,0.1-7.5,1-9.4c0.8-1.6,1.2-2,2.3-2.1
		c1.2-0.2,1.4-0.4,2.1-2.3C5.8,18,6,16.6,6,16.2c-0.1-0.5,0.2-0.8,0.7-1C7.2,15.1,8,14.5,8.4,14c0.5-0.6,1.1-1.1,1.5-1.1
		c0.3,0,1.6,0.9,2.8,2c1.2,1.1,3.3,2.7,4.6,3.6c1.3,0.9,3.7,2.7,5.3,4.1l2.9,2.5l21.8-0.2c12-0.1,21.9-0.3,22.2-0.5
		c0.2-0.1,0.6,0.1,0.9,0.5c0.5,0.8,0.8,0.8,13.6,0.8c11.4,0,13.1-0.1,13.1-0.6c0-0.4,0.4-0.6,1.7-0.6c0.9,0,2.6-0.3,3.8-0.6
		c1.2-0.3,2.7-0.6,3.3-0.6c0.8,0,1.1-0.2,1-0.7c0-0.4,0-1.2,0-1.8c0-1,0.2-1.1,1.2-0.9c1.1,0.2,1.7-0.2,0.7-0.6
		c-0.7-0.2,1-1.8,2.5-2.2c1.1-0.3,1.3-0.6,2.5-3.8c1.6-4.4,2.1-5.3,2.8-5.3c0.4,0,0.5-0.2,0.4-0.7c-0.1-0.4-0.1-1.6,0.1-2.6
		c0.3-1.5,0.7-2.2,2-3.4c1.5-1.4,1.7-1.5,4.4-1.5c1.5,0,5.3,0.3,8.4,0.6c5.9,0.6,20.3,1.9,40.2,3.5c11.6,1,11.8,1,13.4,2.1
		c0.9,0.6,2,1.8,2.5,2.7c0.8,1.4,0.9,2.1,1,7.8c0.1,4.9,0.2,5.9,0.5,4.7c0.4-1.5,0.4-1.5,1.8-1.3c0.8,0.1,2.3,0.3,3.4,0.5l2,0.3
		l0.5-1.8c0.4-1.4,0.7-1.8,1.5-2c1.9-0.5,68.2,0.1,68.5,0.6c0.2,0.3,2.6-2.5,6-6.7c7.2-9,6.8-8.6,9-8.3c1,0.1,2,0.3,2.2,0.3
		c1.1,0.1,1.3,2.1,1.3,12.4l0,10.5l10.9,0.3c6.2,0.2,11.3,0.1,11.9-0.1c0.5-0.2,3.4-0.4,6.5-0.4c3.8-0.1,7.3-0.1,10-0.3
		c2.8-0.1,4.8-0.2,5.9-0.4c4.3,0,12,0.1,17.4,0.1c0.6,0.7,1.2,2.6,1.2,3.8c-0.1,2.2-0.4,3.7-0.9,4.4c-0.6,0.9-4.4,0.9-17.7,0.9
		c-0.6-0.1-2.2-0.1-4.5-0.1c-2.2,0-5,0.1-7.9-0.1c-5.4,0-11.4-0.1-13.5-0.2c-2.2-0.1-4.3,0-5.1,0.2c-0.7,0.2-3.9,0.5-7.1,0.5
		c-3.5,0.1-5.6,0.2-5.2,0.4c0.7,0.4,0.8,2.1,0.2,3.6c-0.3,0.9-0.6,1-2.1,1c-1.2,0-1.8,0.2-2,0.6c-0.3,0.7-2.6,0.8-3.3,0.1
		c-0.3-0.3-0.5-1.4-0.5-2.5v-2l-1.5,0.2c-0.8,0.1-1.7,0.5-1.9,0.8c-0.3,0.4-0.9,0.5-2.4,0.3c-2-0.3-2-0.2-2.3,0.8
		c-0.1,0.6-0.5,1.7-0.9,2.5c-0.6,1.4-0.7,1.5-2.4,1.5c-1.6,0-1.8-0.1-2.1-1.1c-0.5-1.6-1.3-1.2-2.4,1.2c-0.5,1-1,2.1-1.3,2.3
		c-0.5,0.4-5.6,0.7-24.6,1.2c-7,0.2-15.3,0.5-18.5,0.6c-22.9,0.8-21.1,0.9-22.2-1.8c-0.6-1.6-0.7-1.6-2.1-1.4
		c-0.8,0.1-2.4,0.4-3.5,0.5l-2,0.2l-0.2-2.1c-0.4-3-1.1-3.4-1.1-0.6c0,2.1-0.1,2.3-1.5,3.8c-2.6,2.6-2.7,2.9-3,8.6
		c-0.2,4.5-0.2,5.5,0.4,6.5c0.4,0.7,0.6,1.8,0.6,2.4c0,1-0.2,1.2-1.1,1.4c-1,0.2-1.2,0.4-1.3,1.7c-0.2,2.5,0.4,10,1.3,14.6
		c0.8,4.4,4.2,17.2,5.4,20.6l0.7,1.9l-1,0.7c-0.5,0.4-1.4,0.7-2,0.8c-0.6,0-1.5,0.2-2.1,0.4c-0.6,0.2-3.1,0.9-5.6,1.6
		c-2.5,0.7-5.5,1.6-6.5,2c-1.1,0.4-2.7,0.9-3.7,1c-1,0.1-1.9,0.3-2,0.4C166.2,109.5,164.1,109,163.1,108.3z M136.1,64.4l7.2,0l7.2,0
		l1.3-2.6c1.5-3,1.5-3.3,0.6-4.8c-1-1.7-3.1-2.3-8.1-2.4c-4.9-0.1-5.2,0.1-5.6,3c-0.3,1.7,0.3,3.5,1.6,4.5c0.6,0.5,0.9,2,0.3,2
		c-0.6,0-2.8-2.6-3.4-4c-0.3-0.8-0.6-2.3-0.6-3.3c0-1.8,0-1.8-1.1-1.5c-1.4,0.3-2.6,1.5-3.3,3c-0.7,1.6,0.1,3.1,2.2,4.9L136.1,64.4z
		 M281.5,21.2c0.1-0.1,0.3-1.3,0.3-2.5c0-1.7-0.1-2.3-0.6-2.3c-0.8,0-1.8-1.5-1.8-2.8c0-3-1.5-3.1-3.7-0.3c-0.9,1.1-2,2.5-2.5,3
		c-1.6,1.8-3.2,4.5-3,4.8C270.4,21.5,281.1,21.6,281.5,21.2z M180,14.8c4.2-0.3,5.1-0.6,5.8-2c0.6-1-0.6-3-2.2-3.7
		c-1-0.4-5.9-0.6-23.9-0.7c-21-0.1-22.7-0.1-23.6,0.6c-2.8,1.9-2.2,4.8,1.3,5.6C138.9,15,175.2,15.1,180,14.8z"/>
</g>
<g>
	<path class="st0" d="M75.5,141.8c0-0.6-0.1-1.1-0.3-1.5c-0.2-0.4-0.5-0.9-0.9-1.2s-1.1-0.7-1.8-1.1s-1.8-0.7-3-1.1
		c-1.3-0.4-2.6-0.9-3.7-1.4c-1.1-0.5-2.1-1.1-2.9-1.8c-0.8-0.7-1.5-1.5-1.9-2.4c-0.5-0.9-0.7-1.9-0.7-3.1c0-1.1,0.2-2.2,0.7-3.1
		c0.5-1,1.2-1.8,2-2.5c0.9-0.7,1.9-1.2,3.2-1.6c1.2-0.4,2.6-0.6,4.1-0.6c1.6,0,3,0.2,4.3,0.7s2.3,1.1,3.2,1.9s1.5,1.7,2,2.7
		c0.5,1,0.7,2.2,0.7,3.3h-4.9c0-0.7-0.1-1.3-0.3-1.9s-0.5-1.1-1-1.5c-0.4-0.4-1-0.7-1.7-1c-0.7-0.2-1.5-0.3-2.4-0.3
		c-0.9,0-1.6,0.1-2.3,0.3s-1.2,0.5-1.6,0.8c-0.4,0.3-0.7,0.8-0.9,1.2c-0.2,0.5-0.3,1-0.3,1.6c0,1,0.5,1.9,1.5,2.6
		c1,0.7,2.5,1.3,4.5,1.9c1.6,0.5,3,1,4.1,1.6c1.2,0.6,2.1,1.2,2.9,1.9c0.8,0.7,1.3,1.5,1.7,2.4c0.4,0.9,0.6,1.9,0.6,3
		c0,1.2-0.2,2.3-0.7,3.2c-0.5,1-1.1,1.8-2,2.4c-0.9,0.7-1.9,1.2-3.2,1.5c-1.2,0.4-2.6,0.5-4.2,0.5c-1.4,0-2.7-0.2-4-0.6
		c-1.3-0.4-2.5-0.9-3.6-1.7c-1-0.7-1.9-1.7-2.5-2.8c-0.6-1.1-1-2.4-1-3.9h4.9c0,0.9,0.2,1.7,0.5,2.3c0.3,0.6,0.8,1.2,1.3,1.6
		c0.5,0.4,1.2,0.7,1.9,0.9s1.6,0.3,2.4,0.3c1.7,0,3-0.3,3.9-1C75.1,143.8,75.5,142.9,75.5,141.8z"/>
	<path class="st0" d="M108.6,138.8c0,1.5-0.2,2.9-0.5,4.2c-0.4,1.3-0.9,2.4-1.6,3.4s-1.5,1.7-2.6,2.2c-1,0.5-2.2,0.8-3.5,0.8
		c-1.2,0-2.3-0.2-3.2-0.6c-0.9-0.4-1.7-1-2.4-1.7v10h-4.7v-29.1h4.3l0.2,2.1c0.7-0.8,1.5-1.4,2.4-1.9c0.9-0.4,2-0.7,3.2-0.7
		c1.3,0,2.5,0.3,3.5,0.8c1,0.5,1.9,1.2,2.6,2.2c0.7,0.9,1.2,2.1,1.6,3.4c0.4,1.3,0.5,2.8,0.5,4.4V138.8z M103.9,138.4
		c0-0.9-0.1-1.8-0.3-2.7c-0.2-0.8-0.5-1.6-0.9-2.2c-0.4-0.6-0.9-1.1-1.5-1.5c-0.6-0.4-1.3-0.5-2.2-0.5c-1,0-1.9,0.2-2.6,0.6
		c-0.7,0.4-1.2,1-1.6,1.7v9.3c0.4,0.7,0.9,1.3,1.6,1.8c0.7,0.4,1.5,0.7,2.6,0.7c0.9,0,1.6-0.2,2.2-0.6c0.6-0.4,1.1-0.9,1.5-1.5
		c0.4-0.6,0.7-1.4,0.9-2.2c0.2-0.8,0.3-1.7,0.3-2.7V138.4z"/>
	<path class="st0" d="M129.6,132.4c-0.3-0.1-0.6-0.1-0.9-0.1c-0.3,0-0.6,0-1,0c-1.1,0-2.1,0.2-2.8,0.7c-0.7,0.4-1.2,1-1.6,1.8v14.4
		h-4.7v-21h4.5l0.1,2.3c0.5-0.9,1.2-1.5,2-2c0.8-0.5,1.7-0.7,2.8-0.7c0.3,0,0.6,0,0.9,0.1c0.3,0.1,0.6,0.1,0.7,0.2L129.6,132.4z"/>
	<path class="st0" d="M147.4,149.4c-1.6,0-2.9-0.3-4.2-0.8c-1.2-0.5-2.3-1.2-3.2-2.1c-0.9-0.9-1.5-2-2-3.2s-0.7-2.6-0.7-4v-0.8
		c0-1.7,0.2-3.2,0.7-4.5c0.5-1.3,1.2-2.5,2-3.4c0.9-0.9,1.9-1.7,3-2.2c1.2-0.5,2.4-0.8,3.7-0.8c1.5,0,2.9,0.3,4,0.8
		c1.1,0.5,2.1,1.2,2.8,2.1c0.7,0.9,1.3,2,1.6,3.3c0.4,1.3,0.5,2.7,0.5,4.2v2h-13.7c0.1,0.8,0.2,1.6,0.5,2.3s0.7,1.3,1.1,1.8
		s1,0.9,1.7,1.2s1.4,0.4,2.2,0.4c1.2,0,2.2-0.2,3-0.7s1.6-1.1,2.2-1.9l2.5,2.4c-0.3,0.5-0.8,1-1.3,1.5c-0.5,0.5-1.1,0.9-1.7,1.3
		c-0.7,0.4-1.4,0.7-2.3,0.9C149.4,149.3,148.4,149.4,147.4,149.4z M146.8,131.5c-1.3,0-2.3,0.5-3.1,1.4c-0.8,0.9-1.3,2.2-1.5,3.8h9
		v-0.3c0-0.6-0.1-1.2-0.3-1.8c-0.2-0.6-0.4-1.1-0.7-1.5s-0.8-0.8-1.3-1.1C148.3,131.6,147.6,131.5,146.8,131.5z"/>
	<path class="st0" d="M164.5,138.4c0-1.6,0.2-3,0.6-4.4c0.4-1.3,0.9-2.5,1.6-3.4c0.7-0.9,1.6-1.7,2.6-2.2c1-0.5,2.2-0.8,3.5-0.8
		c1.2,0,2.2,0.2,3.1,0.6c0.9,0.4,1.7,1,2.3,1.7v-10.8h4.7v29.8h-4.3l-0.2-2.2c-0.7,0.8-1.5,1.4-2.4,1.9s-2,0.7-3.2,0.7
		c-1.3,0-2.4-0.3-3.4-0.8c-1-0.5-1.9-1.3-2.6-2.2s-1.3-2.1-1.6-3.4c-0.4-1.3-0.6-2.7-0.6-4.2V138.4z M169.3,138.8
		c0,0.9,0.1,1.8,0.3,2.6c0.2,0.8,0.5,1.5,0.8,2.2c0.4,0.6,0.9,1.1,1.5,1.5c0.6,0.4,1.3,0.5,2.2,0.5c1.1,0,1.9-0.2,2.6-0.7
		c0.7-0.5,1.2-1.1,1.6-1.9v-9c-0.4-0.8-0.9-1.4-1.6-1.8c-0.7-0.5-1.5-0.7-2.6-0.7c-0.9,0-1.6,0.2-2.2,0.5s-1.1,0.9-1.5,1.5
		c-0.4,0.6-0.7,1.3-0.8,2.2s-0.3,1.7-0.3,2.7V138.8z"/>
	<path class="st0" d="M209,141.8c0-0.6-0.1-1.1-0.3-1.5c-0.2-0.4-0.5-0.9-0.9-1.2s-1.1-0.7-1.8-1.1c-0.8-0.3-1.8-0.7-3-1.1
		c-1.3-0.4-2.6-0.9-3.7-1.4c-1.1-0.5-2.1-1.1-2.9-1.8c-0.8-0.7-1.5-1.5-1.9-2.4c-0.5-0.9-0.7-1.9-0.7-3.1c0-1.1,0.2-2.2,0.7-3.1
		c0.5-1,1.2-1.8,2-2.5c0.9-0.7,1.9-1.2,3.2-1.6c1.2-0.4,2.6-0.6,4.1-0.6c1.6,0,3,0.2,4.3,0.7s2.3,1.1,3.2,1.9s1.5,1.7,2,2.7
		c0.5,1,0.7,2.2,0.7,3.3H209c0-0.7-0.1-1.3-0.3-1.9c-0.2-0.6-0.5-1.1-1-1.5c-0.4-0.4-1-0.7-1.7-1c-0.7-0.2-1.5-0.3-2.4-0.3
		c-0.9,0-1.6,0.1-2.3,0.3s-1.2,0.5-1.6,0.8c-0.4,0.3-0.7,0.8-0.9,1.2s-0.3,1-0.3,1.6c0,1,0.5,1.9,1.5,2.6s2.5,1.3,4.5,1.9
		c1.6,0.5,3,1,4.1,1.6c1.2,0.6,2.1,1.2,2.9,1.9s1.3,1.5,1.7,2.4c0.4,0.9,0.6,1.9,0.6,3c0,1.2-0.2,2.3-0.7,3.2c-0.5,1-1.1,1.8-2,2.4
		c-0.9,0.7-1.9,1.2-3.2,1.5c-1.2,0.4-2.6,0.5-4.2,0.5c-1.4,0-2.7-0.2-4-0.6c-1.3-0.4-2.5-0.9-3.6-1.7c-1-0.7-1.9-1.7-2.5-2.8
		c-0.6-1.1-1-2.4-1-3.9h4.9c0,0.9,0.2,1.7,0.5,2.3c0.3,0.6,0.8,1.2,1.3,1.6c0.5,0.4,1.2,0.7,2,0.9s1.6,0.3,2.4,0.3
		c1.7,0,3-0.3,3.9-1C208.6,143.8,209,142.9,209,141.8z"/>
	<path class="st0" d="M228.4,130.4c0.7-0.8,1.6-1.5,2.6-2c1-0.5,2.1-0.7,3.3-0.7c1,0,2,0.1,2.8,0.4c0.8,0.3,1.6,0.7,2.2,1.4
		c0.6,0.6,1.1,1.4,1.4,2.4c0.3,1,0.5,2.2,0.5,3.6v13.5h-4.7v-13.5c0-1.4-0.3-2.5-0.9-3.1c-0.6-0.6-1.5-0.9-2.8-0.9
		c-1,0-1.8,0.2-2.5,0.7s-1.3,1.1-1.7,1.8v15h-4.7v-29.8h4.7V130.4z"/>
	<path class="st0" d="M250.9,138.4c0-1.5,0.2-2.9,0.7-4.2s1.1-2.4,1.9-3.4s1.9-1.7,3.1-2.3c1.2-0.5,2.6-0.8,4.1-0.8
		c1.5,0,2.9,0.3,4.1,0.8c1.2,0.5,2.2,1.3,3.1,2.3c0.8,1,1.5,2.1,1.9,3.4c0.4,1.3,0.7,2.7,0.7,4.2v0.4c0,1.5-0.2,2.9-0.7,4.2
		c-0.4,1.3-1.1,2.4-1.9,3.4c-0.8,1-1.9,1.7-3.1,2.2c-1.2,0.5-2.6,0.8-4.1,0.8c-1.5,0-2.9-0.3-4.1-0.8c-1.2-0.5-2.2-1.3-3.1-2.2
		s-1.5-2.1-1.9-3.4s-0.7-2.7-0.7-4.2V138.4z M255.6,138.8c0,0.9,0.1,1.8,0.3,2.7c0.2,0.8,0.5,1.6,0.9,2.2c0.4,0.6,0.9,1.1,1.6,1.5
		s1.4,0.5,2.3,0.5c0.9,0,1.6-0.2,2.3-0.5c0.6-0.4,1.2-0.9,1.6-1.5c0.4-0.6,0.7-1.4,0.9-2.2c0.2-0.8,0.3-1.7,0.3-2.7v-0.4
		c0-0.9-0.1-1.8-0.3-2.6c-0.2-0.8-0.5-1.6-0.9-2.2c-0.4-0.6-0.9-1.1-1.6-1.5c-0.6-0.4-1.4-0.6-2.3-0.6c-0.9,0-1.6,0.2-2.3,0.6
		c-0.6,0.4-1.1,0.9-1.6,1.5c-0.4,0.6-0.7,1.4-0.9,2.2c-0.2,0.8-0.3,1.7-0.3,2.6V138.8z"/>
	<path class="st0" d="M286.3,123v5.1h3.7v3.5h-3.7v11.7c0,0.5,0.1,0.9,0.2,1.2c0.1,0.3,0.3,0.5,0.4,0.7c0.2,0.2,0.4,0.3,0.7,0.3
		c0.3,0.1,0.6,0.1,0.9,0.1s0.6,0,0.9-0.1c0.3,0,0.5-0.1,0.7-0.1v3.6c-0.4,0.1-0.8,0.2-1.3,0.3c-0.5,0.1-1.1,0.1-1.8,0.1
		c-0.8,0-1.5-0.1-2.2-0.3c-0.7-0.2-1.2-0.5-1.7-1c-0.5-0.5-0.9-1.1-1.1-1.8s-0.4-1.7-0.4-2.8v-12h-3.5v-3.5h3.5V123H286.3z"/>
</g>
</svg>
